<?xml version="1.0" standalone="no"?><!DOCTYPE svg PUBLIC "-//W3C//DTD SVG 1.1//EN" "http://www.w3.org/Graphics/SVG/1.1/DTD/svg11.dtd"><svg t="1564728860947" class="icon" viewBox="0 0 1024 1024" version="1.1" xmlns="http://www.w3.org/2000/svg" p-id="1785" xmlns:xlink="http://www.w3.org/1999/xlink" width="200" height="200"><defs><style type="text/css"></style></defs><path d="M31.957333 1024a32 32 0 0 1 0-64h32v-138.666667c0-29.397333 23.936-53.333333 53.333334-53.333333H234.666667c29.397333 0 53.333333 23.936 53.333333 53.333333v138.666667h95.957333V437.333333c0-29.397333 23.936-53.333333 53.333334-53.333333H554.666667c29.397333 0 53.333333 23.936 53.333333 53.333333V960h96v-330.666667c0-29.354667 23.893333-53.290667 53.248-53.333333H874.666667c29.397333 0 53.333333 23.936 53.333333 53.333333v330.666667h31.957333a32 32 0 0 1 0 64H31.957333z m832.042667-64V640H768v320h96z m-320 0v-512h-96.042667v512h96.042667z m-320 0v-128H127.957333v128H224z" p-id="1786"></path><path d="M95.957333 544.042667c-52.949333 0-96-43.050667-96-96a96.085333 96.085333 0 0 1 113.194667-94.421334l144.426667-144.298666A96.085333 96.085333 0 0 1 351.957333 96a96.085333 96.085333 0 0 1 96 96v1.194667l145.962667 39.04a95.701333 95.701333 0 0 1 122.368-29.354667L833.28 111.36A96.128 96.128 0 0 1 928 0C980.906667 0 1024 43.050667 1024 96S980.949333 192 928 192a95.573333 95.573333 0 0 1-63.36-23.936l-104.576 81.834667A96.085333 96.085333 0 0 1 672 384a96.128 96.128 0 0 1-95.829333-90.197333l-150.613334-40.277334a95.701333 95.701333 0 0 1-134.4 12.714667L170.112 387.157333c14.037333 17.066667 21.845333 38.485333 21.845333 60.885334a96.085333 96.085333 0 0 1-96 96z m0-128a32 32 0 1 0 0 64 32 32 0 0 0 0-64zM672 256a32 32 0 1 0 0.085333 64.085333A32 32 0 0 0 672 256zM351.957333 160.042667a32 32 0 1 0 0 64 32 32 0 0 0 0-64zM928 64a32 32 0 0 0 0 64 32 32 0 0 0 0-64z" p-id="1787"></path></svg>