<?xml version="1.0" standalone="no"?><!DOCTYPE svg PUBLIC "-//W3C//DTD SVG 1.1//EN" "http://www.w3.org/Graphics/SVG/1.1/DTD/svg11.dtd"><svg t="1564728874284" class="icon" viewBox="0 0 1024 1024" version="1.1" xmlns="http://www.w3.org/2000/svg" p-id="2031" xmlns:xlink="http://www.w3.org/1999/xlink" width="200" height="200"><defs><style type="text/css"></style></defs><path d="M992.085333 1024a32 32 0 0 1-32-32V832h-320v160a32 32 0 0 1-64 0v-512c0-46.336 32.896-85.589333 77.696-94.208l119.68-179.541333c5.76-8.661333 15.701333-13.824 26.624-13.824s20.864 5.162667 26.624 13.824l119.68 179.541333a95.872 95.872 0 0 1 77.696 94.208v512a32 32 0 0 1-32 32z m-32-256v-128h-320v128h320z m0-192v-96a32 32 0 0 0-32-32h-256a32 32 0 0 0-32 32v96h320zM868.309333 384l-68.224-102.314667L731.861333 384h136.448zM479.146667 1023.957333a30.890667 30.890667 0 0 1-11.861334-2.645333l-1.322666-0.554667-401.92-200.96v172.202667a32 32 0 0 1-64 0v-768c0-9.344 4.096-18.218667 11.178666-24.32L235.221333 7.68a31.914667 31.914667 0 0 1 41.685334 0.042667l224 192a32 32 0 0 1 11.178666 24.277333v768a28.245333 28.245333 0 0 1-0.341333 4.224c-0.213333 1.408-0.341333 2.261333-0.554667 3.114667a23.850667 23.850667 0 0 1-0.810666 2.688c-0.341333 1.066667-0.682667 1.877333-0.981334 2.645333a13.994667 13.994667 0 0 1-1.792 3.456 29.44 29.44 0 0 1-3.413333 4.736l-1.28 1.450667a31.104 31.104 0 0 1-14.933333 8.618666 30.506667 30.506667 0 0 1-7.893334 1.066667l-0.938666-0.042667z m-31.061334-83.712v-344.448L103.637333 768l344.448 172.245333z m-384-224l344.448-172.202666-344.448-172.245334v344.448z m384-224V288h-384v12.202667l384 192.042666z m-17.152-268.245333L256.085333 74.154667 81.237333 224h349.696z" p-id="2032"></path></svg>